<svg xmlns="http://www.w3.org/2000/svg" xmlns:xlink="http://www.w3.org/1999/xlink" version="1.1" viewBox="785.5 0 429 101"><svg xml:space="preserve" width="2000" height="101" data-version="2" data-id="lg_wPU8fFEgbRsOe4Vw9V" viewBox="0 0 429 101" x="0" y="0"><rect width="100%" height="100%" fill="transparent"/><g transform="translate(27.5 32.23)"><linearGradient id="a" x1="-1" x2="8.29" y1="0" y2="0" gradientUnits="objectBoundingBox"><stop offset="0%" stop-color="#dede50"/><stop offset="100%" stop-color="#39e079"/></linearGradient><path fill="url(#a)" d="M217.01 386.64q-7.55 0-13.59-3.12-6.05-3.11-9.51-9.27-3.47-6.16-3.47-15.17t3.51-15.56q3.5-6.54 9.62-10.05 6.12-3.5 13.98-3.5 9.08 0 13.94 2.54 4.85 2.54 4.85 7.55 0 3.85-2.08 6.35-2.08 2.5-5.7 2.5-3.08 0-5.97-.81-2.89-.8-6.74-.8-4.92 0-7.77 2.84-2.85 2.85-2.85 7.47 0 4.55 2.85 7.59t7.77 3.04q2.62 0 4.82-.42 2.19-.43 4.31-.89 2.12-.46 4.58-.46 4.08 0 6.01 2.66 1.92 2.65 1.92 6.58t-2.85 6.35q-2.85 2.43-7.5 3.5-4.66 1.08-10.13 1.08" transform="translate(-213.97 -358.3)"/></g><rect width="47.05" height="56.67" x="-23.52" y="-28.34" fill="none" rx="0" ry="0" transform="translate(28 32.73)"/><g transform="translate(74.09 40.2)"><linearGradient id="b" x1="-2.37" x2="8.84" y1="0" y2="0" gradientUnits="objectBoundingBox"><stop offset="0%" stop-color="#dede50"/><stop offset="100%" stop-color="#39e079"/></linearGradient><path fill="url(#b)" d="M260.51 386.64q-9 0-14.36-5.35-5.35-5.35-5.35-15.13 0-6.01 2.47-10.55 2.46-4.54 6.89-7.12t10.35-2.58q6.63 0 11.02 2.58 4.38 2.58 6.58 7.12 2.19 4.54 2.19 10.55 0 9.78-4.89 15.13-4.89 5.35-14.9 5.35m-10.54-21.79q0 2.39 2.38 3.35 2.39.96 8.16.96 5.78 0 8.17-.96 2.38-.96 2.38-3.35 0-2.31-2.38-3.23-2.39-.93-8.17-.93-5.77 0-8.16.93-2.38.92-2.38 3.23" transform="translate(-260.55 -366.27)"/></g><rect width="39.5" height="40.73" x="-19.75" y="-20.36" fill="none" rx="0" ry="0" transform="translate(74.59 40.7)"/><g transform="translate(118.04 30.92)"><linearGradient id="c" x1="-3.24" x2="7.49" y1="0" y2="0" gradientUnits="objectBoundingBox"><stop offset="0%" stop-color="#dede50"/><stop offset="100%" stop-color="#39e079"/></linearGradient><path fill="url(#c)" d="M297.78 386.49q-14.01 0-14.01-20.64 0-8.93 3.46-14.28 3.47-5.35 10.4-5.35 3.77 0 6.12 1.54t3.7 4.19q1.34 2.66 1.96 6.13l.23-.08v-23.33q0-3.16 1.89-5.35 1.88-2.2 5.5-2.2 3.54 0 5.28 2.2 1.73 2.19 1.73 5.5v34.65q0 2.62.42 4.81.43 2.2.66 4.35.23 2.93-1.2 5.05-1.42 2.12-5.04 2.73-4.7.77-6.97-1.62-2.27-2.38-2.27-7.08v-2.85h-1.46q0 5.62-2.81 8.63-2.81 3-7.59 3m-1.15-21.33q0 2.39 1.46 3.54 1.46 1.16 5.24 1.16 3.85 0 5.31-1.16 1.46-1.15 1.46-3.54 0-2.46-1.42-3.58-1.43-1.12-5.28-1.12-3.85 0-5.31 1.12-1.46 1.12-1.46 3.58" transform="translate(-304.5 -357)"/></g><rect width="41.46" height="59.75" x="-20.73" y="-29.87" fill="none" rx="0" ry="0" transform="translate(118.54 31.42)"/><g transform="translate(160.72 40.24)"><linearGradient id="d" x1="-4.68" x2="7.27" y1="0" y2="0" gradientUnits="objectBoundingBox"><stop offset="0%" stop-color="#dede50"/><stop offset="100%" stop-color="#39e079"/></linearGradient><path fill="url(#d)" d="M328.51 366.47q0-6.08 2.42-10.7 2.43-4.62 6.93-7.24 4.51-2.62 10.74-2.62 4.85 0 8.74 1.77 3.89 1.77 6.12 4.74 2.24 2.96 2.24 6.5 0 3.7-2.16 5.24t-6.39 1.54h-16.17q0 2 1.58 3.31t5.35 1.31q1.92 0 3.58-.39 1.66-.38 3.39-.73 1.73-.34 3.89-.34 3.08 0 5.08 2.19t2 6.04q0 4.55-4.66 7.09t-12.2 2.54q-5.32 0-9.97-2.08-4.66-2.08-7.59-6.58-2.92-4.51-2.92-11.59m24.94-3.31q1.16 0 .77-1.08-.3-1.08-1.84-2.23-1.54-1.16-4.47-1.16-3.39 0-5.04 1.46-1.66 1.47-1.66 3.01Z" transform="translate(-347.18 -366.31)"/></g><rect width="37.34" height="40.81" x="-18.67" y="-20.41" fill="none" rx="0" ry="0" transform="translate(161.22 40.74)"/><g transform="translate(219.43 32.31)"><linearGradient id="e" x1="-4.96" x2="4.71" y1="0" y2="0" gradientUnits="objectBoundingBox"><stop offset="0%" stop-color="#dede50"/><stop offset="100%" stop-color="#39e079"/></linearGradient><path fill="url(#e)" d="M407.28 386.72q-4.32 0-8.67-.89-4.35-.88-8-2.61-3.66-1.74-5.89-4.24-2.24-2.5-2.24-5.81 0-4.24 2.7-6.78 2.69-2.54 6.31-2.39 2.85.08 5.7 1.2 2.85 1.11 5.81 2.19 2.97 1.08 5.97 1.08 3 0 4.16-.77 1.15-.77 1.15-2.08 0-1.54-1.61-2.54-1.62-1-4.08-1.54l-3.78-.92q-5.85-1.39-10.47-3.12-4.62-1.73-7.28-4.62-2.65-2.89-2.65-7.74 0-5.31 2.92-8.66 2.93-3.35 7.93-4.89 5.01-1.54 11.17-1.54 6.31 0 11.09 1.31 4.77 1.31 7.43 3.77 2.65 2.46 2.65 6.01 0 3.77-2.04 5.89-2.04 2.11-5.42 2.11-2.24 0-4.66-.77-2.43-.77-5.08-1.5-2.66-.73-5.66-.73-2.7 0-4.09.81-1.38.81-1.38 2.12 0 1.61 1.85 2.38 1.84.77 6.08 1.85l4.31 1q5.31 1.31 9.32 3.16 4 1.85 6.24 4.85 2.23 3 2.23 7.85 0 5.86-2.77 9.51-2.78 3.66-7.7 5.36-4.93 1.69-11.55 1.69" transform="translate(-405.89 -358.38)"/></g><rect width="46.82" height="56.67" x="-23.41" y="-28.34" fill="none" rx="0" ry="0" transform="translate(219.93 32.81)"/><g transform="translate(266.44 48.08)"><linearGradient id="f" x1="-6.49" x2="4.13" y1="0" y2="0" gradientUnits="objectBoundingBox"><stop offset="0%" stop-color="#dede50"/><stop offset="100%" stop-color="#39e079"/></linearGradient><path fill="url(#f)" d="M459.56 386.49q-4.24 0-7.05-2.62-2.81-2.62-3.58-6.78h-1.38v17.71q0 3.16-1.77 5.36-1.77 2.19-5.39 2.19-3.47 0-5.35-2.19-1.89-2.2-1.89-5.51v-28.8q0-3.85-.27-6.5-.27-2.66-.5-4.82-.31-3.23 1.31-5.5 1.61-2.27 5.23-2.74 4.7-.61 6.66 1.66 1.97 2.27 1.97 7.05v3.69l.31.08q.38-3 1.81-5.89 1.42-2.89 4.04-4.78 2.62-1.88 6.62-1.88 6.7 0 9.97 5.35 3.27 5.35 3.27 14.28 0 20.64-14.01 20.64m-12.32-20.79q0 1.23.31 1.92.46 1.47 1.96 2.12 1.5.66 4.51.66 3.85 0 5.27-1.16 1.42-1.15 1.42-3.54 0-2.47-1.38-3.58-1.39-1.12-5.24-1.12-3.08 0-4.58.66-1.5.65-1.96 2.11-.31.7-.31 1.93" transform="translate(-452.9 -374.15)"/></g><rect width="41.35" height="56.41" x="-20.68" y="-28.2" fill="none" rx="0" ry="0" transform="translate(266.94 48.58)"/><g transform="translate(308.13 40.2)"><linearGradient id="g" x1="-9.11" x2="4.02" y1="0" y2="0" gradientUnits="objectBoundingBox"><stop offset="0%" stop-color="#dede50"/><stop offset="100%" stop-color="#39e079"/></linearGradient><path fill="url(#g)" d="M485.05 386.49q-3.62 0-5.62-2.08-2.01-2.08-2.01-5.24v-25.25q0-3.31 2.01-5.51 2-2.19 5.62-2.19t5.54 2.19q1.93 2.2 1.93 5.35v1.62h1.46q.31-4.08 3.08-6.7t6.54-2.62q3.78 0 5.97 2.31 2.2 2.31 2.2 6.16 0 3.62-2.08 6.01-2.08 2.39-5.32 2.39-2.69 0-4.5-1.27t-2.66-2.97q-2.46-.31-3.58.5-1.11.81-1.11 3.2v16.78q0 3.16-1.93 5.24-1.92 2.08-5.54 2.08" transform="translate(-494.6 -366.27)"/></g><rect width="34.35" height="40.43" x="-17.18" y="-20.21" fill="none" rx="0" ry="0" transform="translate(308.63 40.7)"/><g transform="translate(335.43 32.12)"><linearGradient id="h" x1="-19.89" x2="6.91" y1="0" y2="0" gradientUnits="objectBoundingBox"><stop offset="0%" stop-color="#dede50"/><stop offset="100%" stop-color="#39e079"/></linearGradient><path fill="url(#h)" d="M514.23 337.29q0-3.32 2.04-5.36 2.04-2.04 5.66-2.04 3.85 0 5.74 2.01 1.88 2 1.88 5.31 0 3.23-1.88 5.2-1.89 1.96-5.74 1.96-3.77 0-5.74-1.96-1.96-1.97-1.96-5.12m7.7 49.2q-3.62 0-5.39-2-1.77-2.01-1.77-5.01v-26.33q0-3.31 1.77-5.24 1.77-1.92 5.39-1.92 3.62 0 5.43 1.92 1.81 1.93 1.81 5.08v26.49q0 3-1.89 5.01-1.89 2-5.35 2" transform="translate(-521.89 -358.19)"/></g><rect width="15.32" height="56.6" x="-7.66" y="-28.3" fill="none" rx="0" ry="0" transform="translate(335.93 32.62)"/><g transform="translate(366 40.28)"><linearGradient id="i" x1="-9.71" x2="2.21" y1="0" y2="0" gradientUnits="objectBoundingBox"><stop offset="0%" stop-color="#dede50"/><stop offset="100%" stop-color="#39e079"/></linearGradient><path fill="url(#i)" d="M540.87 386.49q-3.39 0-5.43-2.04-2.04-2.04-2.04-5.05v-25.48q0-3.24 1.93-5.47 1.92-2.23 5.54-2.23 3.54 0 5.39 2.23 1.85 2.23 1.85 5.62v3.85h1.39q0-4.39 1.57-6.93 1.58-2.54 4.05-3.66 2.46-1.11 4.92-1.11 5.93 0 8.71 4.27 2.77 4.27 2.77 12.13v16.78q0 3.01-2 5.05-2.01 2.04-5.39 2.04-3.47 0-5.51-2.04-2.04-2.04-2.04-5.05v-13.62q0-2.78-1.04-4.32-1.04-1.54-3.04-1.54-2.31 0-3.35 1.7-1.04 1.69-1.04 4.31v13.47q0 3.01-1.93 5.05-1.92 2.04-5.31 2.04" transform="translate(-552.46 -366.36)"/></g><rect width="38.12" height="40.27" x="-19.06" y="-20.14" fill="none" rx="0" ry="0" transform="translate(366.5 40.78)"/><g transform="translate(405.43 34.27)"><linearGradient id="j" x1="-10.88" x2="1.25" y1="0" y2="0" gradientUnits="objectBoundingBox"><stop offset="0%" stop-color="#dede50"/><stop offset="100%" stop-color="#39e079"/></linearGradient><path fill="url(#j)" d="M596.31 386.72q-4.08 0-7.35-1.85-3.27-1.85-5.12-5.27-1.85-3.43-1.85-8.05V358l-2.85.38q-2.31.31-4.08-1.61-1.77-1.93-1.77-4.85 0-2.93 1.77-4.82 1.77-1.88 4.08-1.58l2.85.39-.08-5.24q-.07-3.08 1.77-4.89 1.85-1.81 5.39-1.81 3.55 0 5.47 1.81 1.93 1.81 1.77 4.89l-.15 5.24 4.08-.54q4.16-.62 6.31 1.5 2.16 2.12 2.16 5.05 0 2.92-2.12 5.04t-6.12 1.58l-4.31-.54v11.47q0 1 .69 1.81t1.69.5q1.16-.31 2.43-1.31 1.27-1 3.27-1 3.01 0 4.62 2.16 1.62 2.15 1.62 5.31 0 2.46-1.73 4.74-1.74 2.27-4.89 3.65-3.16 1.39-7.55 1.39" transform="translate(-591.88 -360.35)"/></g><rect width="37.19" height="52.75" x="-18.59" y="-26.38" fill="none" rx="0" ry="0" transform="translate(405.93 34.77)"/><path fill="#edecec" d="M42.08 95.3q-1.3 0-2.43-.49-1.13-.5-1.98-1.39-.86-.89-1.34-2.05-.48-1.16-.48-2.48t.47-2.48q.48-1.16 1.33-2.04.86-.88 1.99-1.38 1.12-.5 2.44-.5 1.15 0 2.09.33.95.34 1.83 1.07.14.12.16.27.03.15-.04.29-.06.13-.19.2-.03.12-.16.19-.13.06-.29.05-.17-.02-.33-.15-.63-.54-1.36-.81-.74-.26-1.71-.26-1.04 0-1.95.42-.9.41-1.59 1.13-.69.72-1.08 1.67-.39.94-.39 2 0 1.08.39 2.03.39.94 1.08 1.66.69.72 1.59 1.13.91.41 1.95.41.88 0 1.66-.29.78-.29 1.49-.83.19-.16.41-.13.21.03.37.19t.16.42q0 .13-.04.23t-.13.22q-.82.75-1.83 1.06-1.01.31-2.09.31"/><rect width="10.33" height="12.81" x="-5.17" y="-6.41" fill="none" rx="0" ry="0" transform="translate(41.51 89.4)"/><path fill="#edecec" d="M51.93 95.22q-1.28 0-2.29-.57-1-.58-1.58-1.59-.58-1.01-.58-2.29 0-1.29.58-2.3.58-1.01 1.58-1.58 1.01-.58 2.29-.58t2.28.58q1 .57 1.58 1.58.57 1.01.59 2.3 0 1.28-.58 2.29-.59 1.01-1.59 1.59-1 .57-2.28.57m0-1.12q.93 0 1.67-.43.73-.43 1.15-1.18.41-.76.41-1.72t-.41-1.72q-.42-.76-1.15-1.19-.74-.43-1.67-.43-.93 0-1.66.43-.74.43-1.16 1.19-.43.76-.43 1.72t.43 1.72q.42.75 1.16 1.18.73.43 1.66.43"/><rect width="8.9" height="8.91" x="-4.45" y="-4.46" fill="none" rx="0" ry="0" transform="translate(52.43 91.27)"/><path fill="#edecec" d="M62.76 95.22q-1.26 0-2.27-.58-1.01-.59-1.59-1.59-.58-1.01-.58-2.29 0-1.27.56-2.27.57-1.01 1.55-1.6.97-.58 2.21-.58 1.07 0 1.93.46.87.45 1.39 1.2v-4.7q0-.29.18-.46.18-.16.45-.16t.45.16q.17.17.17.46v7.55q-.03 1.25-.61 2.25-.59 1-1.59 1.58-1 .57-2.25.57m0-1.12q.93 0 1.66-.44.73-.44 1.15-1.19.43-.75.43-1.71 0-.95-.43-1.71-.42-.76-1.15-1.19-.73-.43-1.66-.43-.91 0-1.64.43-.74.43-1.17 1.19-.43.76-.43 1.71 0 .96.43 1.71t1.17 1.19q.73.44 1.64.44"/><rect width="8.89" height="12.57" x="-4.45" y="-6.29" fill="none" rx="0" ry="0" transform="translate(63.27 89.44)"/><path fill="#edecec" d="M74.06 95.22q-1.3 0-2.3-.57-1-.56-1.56-1.57-.57-1.01-.57-2.31 0-1.31.53-2.31.54-1 1.48-1.57.95-.58 2.18-.58 1.22 0 2.12.55.9.55 1.4 1.53.5.98.5 2.22 0 .26-.16.41-.16.15-.42.15h-6.8v-1.02h6.93l-.69.5q.02-.93-.34-1.67-.35-.73-1-1.15-.64-.42-1.54-.42-.91 0-1.6.44-.69.43-1.06 1.19-.38.76-.38 1.73 0 .98.42 1.73.43.75 1.16 1.19.74.43 1.7.43.58 0 1.16-.2t.94-.51q.17-.14.4-.15.22-.01.38.12.21.19.22.42 0 .22-.19.38-.53.45-1.34.75-.82.29-1.57.29"/><rect width="8.21" height="8.91" x="-4.11" y="-4.46" fill="none" rx="0" ry="0" transform="translate(74.23 91.27)"/><path fill="#edecec" d="M88.4 95.14q-.26 0-.44-.18-.19-.19-.19-.44V82.65h1.25v11.87q0 .25-.18.44-.17.18-.44.18m-4.42-11.36q-.26 0-.42-.16-.16-.16-.16-.4 0-.25.16-.41.16-.16.42-.16h8.85q.25 0 .41.16.16.16.16.41 0 .24-.16.4-.16.16-.41.16Z"/><rect width="10" height="12.49" x="-5" y="-6.25" fill="none" rx="0" ry="0" transform="translate(88.9 89.4)"/><path fill="#edecec" d="M96.67 95.22q-1.28 0-2.29-.57-1.01-.58-1.58-1.59-.58-1.01-.58-2.29 0-1.29.58-2.3.57-1.01 1.58-1.58 1.01-.58 2.29-.58t2.28.58q1 .57 1.57 1.58.58 1.01.6 2.3 0 1.28-.59 2.29-.58 1.01-1.58 1.59-1 .57-2.28.57m0-1.12q.93 0 1.66-.43.74-.43 1.15-1.18.42-.76.42-1.72t-.42-1.72q-.41-.76-1.15-1.19-.73-.43-1.66-.43-.93 0-1.67.43-.73.43-1.16 1.19-.42.76-.42 1.72t.42 1.72q.43.75 1.16 1.18.74.43 1.67.43"/><rect width="8.9" height="8.91" x="-4.45" y="-4.46" fill="none" rx="0" ry="0" transform="translate(97.17 91.27)"/><path fill="#edecec" d="M107.37 95.22q-1.26 0-2.24-.57-.97-.56-1.53-1.57-.55-1.01-.55-2.31 0-1.31.58-2.32.57-1 1.58-1.57 1.01-.57 2.29-.57 1.3 0 2.3.57 1 .57 1.56 1.57.57 1.01.59 2.32l-.72.39q0 1.18-.5 2.1-.49.92-1.37 1.44-.87.52-1.99.52m.16 3.38q-1.26 0-2.22-.47-.96-.48-1.59-1.29-.17-.19-.15-.42.03-.22.23-.37.21-.14.47-.09.25.05.4.24.46.57 1.19.93.73.35 1.69.35.89 0 1.61-.43.72-.44 1.15-1.22.42-.78.42-1.84v-2.43l.47-.93.75.14v3.27q0 1.29-.58 2.33-.57 1.03-1.57 1.63-.99.6-2.27.6m-.03-4.5q.94 0 1.67-.42.73-.43 1.15-1.18.41-.75.41-1.73 0-.97-.41-1.73-.42-.76-1.15-1.19-.73-.42-1.67-.42t-1.68.42q-.74.43-1.15 1.19-.42.76-.42 1.73 0 .98.42 1.73.41.75 1.15 1.18.74.42 1.68.42"/><rect width="8.9" height="12.29" x="-4.45" y="-6.14" fill="none" rx="0" ry="0" transform="translate(108 92.95)"/><path fill="#edecec" d="M118.32 95.22q-1.3 0-2.3-.57-1-.56-1.57-1.57-.57-1.01-.57-2.31 0-1.31.54-2.31t1.48-1.57q.94-.58 2.18-.58 1.21 0 2.12.55.9.55 1.4 1.53.49.98.49 2.22 0 .26-.16.41-.16.15-.41.15h-6.8v-1.02h6.92l-.68.5q.01-.93-.34-1.67-.35-.73-1-1.15-.65-.42-1.54-.42-.92 0-1.6.44-.69.43-1.07 1.19-.37.76-.37 1.73 0 .98.42 1.73t1.16 1.19q.74.43 1.7.43.57 0 1.16-.2.58-.2.93-.51.18-.14.4-.15.23-.01.39.12.2.19.21.42.01.22-.18.38-.53.45-1.35.75-.81.29-1.56.29"/><rect width="8.21" height="8.91" x="-4.11" y="-4.46" fill="none" rx="0" ry="0" transform="translate(118.48 91.27)"/><path fill="#edecec" d="M127.6 95.14q-.85 0-1.52-.4-.66-.4-1.04-1.09-.39-.7-.39-1.6v-7.82q0-.27.17-.45.17-.17.44-.17t.45.17q.17.18.17.45v7.82q0 .82.48 1.34.48.52 1.24.52h.43q.25 0 .41.18.16.17.16.44 0 .28-.19.44-.19.17-.48.17Zm-3.99-7.36q-.24 0-.4-.15-.16-.15-.16-.38 0-.24.16-.39.16-.15.4-.15h4.08q.24 0 .4.15.16.15.16.39 0 .23-.16.38t-.4.15Z"/><rect width="5.55" height="11.53" x="-2.77" y="-5.76" fill="none" rx="0" ry="0" transform="translate(126.33 89.88)"/><path fill="#edecec" d="M131.23 91.57q-.29 0-.46-.17-.17-.18-.17-.45v-7.68q0-.29.17-.46.17-.16.46-.16.27 0 .44.16.17.17.17.46v7.68q0 .27-.17.45-.17.17-.44.17m6.88 3.57q-.27 0-.45-.17-.18-.18-.18-.44v-4.16q0-.99-.37-1.63-.38-.64-1.03-.96-.64-.32-1.46-.32-.78 0-1.42.31-.63.3-1 .83-.36.53-.36 1.2h-.88q.03-1.01.54-1.8t1.36-1.25q.85-.46 1.89-.46 1.13 0 2.03.48.9.47 1.42 1.38.52.91.52 2.22v4.16q0 .26-.18.44-.18.17-.43.17m-6.88 0q-.29 0-.46-.17-.17-.16-.17-.44v-7.52q0-.28.17-.45.17-.17.46-.17.27 0 .44.17.17.17.17.45v7.52q0 .28-.17.44-.17.17-.44.17"/><rect width="8.12" height="12.49" x="-4.06" y="-6.25" fill="none" rx="0" ry="0" transform="translate(135.16 89.4)"/><path fill="#edecec" d="M145.4 95.22q-1.29 0-2.29-.57-1-.56-1.57-1.57-.57-1.01-.57-2.31 0-1.31.54-2.31.53-1 1.48-1.57.94-.58 2.17-.58 1.22 0 2.12.55.91.55 1.4 1.53.5.98.5 2.22 0 .26-.16.41-.16.15-.42.15h-6.8v-1.02h6.93l-.69.5q.02-.93-.33-1.67-.35-.73-1-1.15-.65-.42-1.55-.42-.91 0-1.6.44-.68.43-1.06 1.19t-.38 1.73q0 .98.43 1.73.42.75 1.16 1.19.73.43 1.69.43.58 0 1.16-.2.59-.2.94-.51.18-.14.4-.15.22-.01.38.12.21.19.22.42.01.22-.18.38-.53.45-1.35.75-.81.29-1.57.29"/><rect width="8.21" height="8.91" x="-4.11" y="-4.46" fill="none" rx="0" ry="0" transform="translate(145.57 91.27)"/><path fill="#edecec" d="M151.77 89.75q.05-.99.52-1.78.47-.78 1.23-1.23.76-.45 1.69-.45.74 0 1.14.21.4.21.3.61-.06.24-.21.32-.16.08-.37.06-.22-.01-.49-.03-.9-.08-1.59.19-.7.26-1.11.8-.4.55-.4 1.3Zm.1 5.39q-.29 0-.45-.16-.16-.16-.16-.45V87q0-.29.16-.45.16-.16.45-.16.29 0 .45.16.16.16.16.45v7.53q0 .29-.16.45-.16.16-.45.16"/><rect width="5.45" height="8.85" x="-2.72" y="-4.42" fill="none" rx="0" ry="0" transform="translate(154.48 91.22)"/><path fill="#edecec" d="M155.88 97.73q-.16 0-.24-.08-.09-.09-.09-.24 0-.24.14-.44.15-.2.3-.42.15-.22.15-.54 0-.29-.11-.48-.11-.2-.27-.35-.15-.15-.26-.33-.11-.19-.11-.46 0-.4.26-.64.27-.24.67-.24.48 0 .78.38.3.37.3 1.04 0 .45-.12.95-.13.49-.36.92-.22.42-.49.68-.27.25-.55.25"/><rect width="2.01" height="4.22" x="-1" y="-2.11" fill="none" rx="0" ry="0" transform="translate(156.9 96.12)"/><path fill="#edecec" d="M170.11 95.3q-1.3 0-2.43-.49-1.12-.5-1.98-1.39-.86-.89-1.34-2.05-.48-1.16-.48-2.48t.48-2.48q.47-1.16 1.32-2.04.86-.88 1.99-1.38 1.13-.5 2.44-.5 1.15 0 2.09.33.95.34 1.83 1.07.14.12.17.27.02.15-.04.29-.07.13-.2.2-.03.12-.16.19-.12.06-.29.05-.17-.02-.33-.15-.62-.54-1.36-.81-.74-.26-1.71-.26-1.04 0-1.95.42-.9.41-1.59 1.13-.69.72-1.08 1.67-.39.94-.39 2 0 1.08.39 2.03.39.94 1.08 1.66.69.72 1.59 1.13.91.41 1.95.41.88 0 1.66-.29.79-.29 1.49-.83.19-.16.41-.13.21.03.37.19t.16.42q0 .13-.04.23t-.13.22q-.82.75-1.83 1.06-1 .31-2.09.31"/><rect width="10.33" height="12.81" x="-5.17" y="-6.41" fill="none" rx="0" ry="0" transform="translate(169.55 89.4)"/><path fill="#edecec" d="M177.24 91.57q-.28 0-.45-.17-.17-.18-.17-.45v-7.68q0-.29.17-.46.17-.16.45-.16t.44.16q.17.17.17.46v7.68q0 .27-.17.45-.16.17-.44.17m6.88 3.57q-.27 0-.44-.17-.18-.18-.18-.44v-4.16q0-.99-.38-1.63-.37-.64-1.02-.96-.65-.32-1.46-.32-.79 0-1.42.31-.63.3-1 .83t-.37 1.2h-.88q.03-1.01.55-1.8.51-.79 1.36-1.25.84-.46 1.88-.46 1.14 0 2.04.48.89.47 1.41 1.38.52.91.52 2.22v4.16q0 .26-.17.44-.18.17-.44.17m-6.88 0q-.28 0-.45-.17-.17-.16-.17-.44v-7.52q0-.28.17-.45.17-.17.45-.17t.44.17q.17.17.17.45v7.52q0 .28-.17.44-.16.17-.44.17"/><rect width="8.11" height="12.49" x="-4.05" y="-6.25" fill="none" rx="0" ry="0" transform="translate(181.18 89.4)"/><path fill="#edecec" d="M191.31 95.22q-1.23 0-2.21-.58-.98-.59-1.54-1.59-.57-1.01-.57-2.28 0-1.28.58-2.28.59-1.01 1.59-1.6 1.01-.58 2.28-.58 1.26 0 2.26.58 1 .59 1.58 1.6.59 1 .6 2.28l-.49.39q0 1.15-.54 2.07-.53.92-1.45 1.46-.92.53-2.09.53m.13-1.12q.92 0 1.65-.43.73-.43 1.15-1.19.43-.76.43-1.71 0-.96-.43-1.71-.42-.75-1.15-1.19-.73-.44-1.65-.44-.92 0-1.65.44-.74.44-1.17 1.19-.43.75-.43 1.71 0 .95.43 1.71t1.17 1.19q.73.43 1.65.43m3.82 1.04q-.27 0-.45-.17-.17-.16-.17-.44V91.8l.3-1.27.94.24v3.76q0 .28-.17.44-.18.17-.45.17"/><rect width="8.89" height="8.91" x="-4.45" y="-4.46" fill="none" rx="0" ry="0" transform="translate(191.94 91.27)"/><path fill="#edecec" d="M201.71 95.14q-.85 0-1.51-.4-.67-.4-1.05-1.09-.39-.7-.39-1.6v-7.82q0-.27.17-.45.17-.17.44-.17t.45.17q.18.18.18.45v7.82q0 .82.48 1.34.48.52 1.23.52h.43q.26 0 .42.18.16.17.16.44 0 .28-.2.44-.19.17-.48.17Zm-3.99-7.36q-.24 0-.4-.15-.16-.15-.16-.38 0-.24.16-.39.16-.15.4-.15h4.08q.24 0 .4.15.16.15.16.39 0 .23-.16.38t-.4.15Z"/><rect width="5.56" height="11.53" x="-2.78" y="-5.76" fill="none" rx="0" ry="0" transform="translate(200.44 89.88)"/><path fill="#edecec" d="M213.2 95.14q-.26 0-.44-.18-.19-.19-.19-.44V82.65h1.25v11.87q0 .25-.18.44-.17.18-.44.18m-4.42-11.36q-.26 0-.42-.16-.16-.16-.16-.4 0-.25.16-.41.16-.16.42-.16h8.85q.25 0 .41.16.16.16.16.41 0 .24-.16.4-.16.16-.41.16Z"/><rect width="10" height="12.49" x="-5" y="-6.25" fill="none" rx="0" ry="0" transform="translate(213.7 89.4)"/><path fill="#edecec" d="M221.47 95.22q-1.28 0-2.29-.57-1.01-.58-1.58-1.59-.58-1.01-.58-2.29 0-1.29.58-2.3.57-1.01 1.58-1.58 1.01-.58 2.29-.58t2.28.58q1 .57 1.57 1.58.58 1.01.6 2.3 0 1.28-.59 2.29-.58 1.01-1.58 1.59-1 .57-2.28.57m0-1.12q.93 0 1.66-.43.74-.43 1.15-1.18.42-.76.42-1.72t-.42-1.72q-.41-.76-1.15-1.19-.73-.43-1.66-.43-.93 0-1.67.43-.73.43-1.16 1.19-.42.76-.42 1.72t.42 1.72q.43.75 1.16 1.18.74.43 1.67.43"/><rect width="8.9" height="8.91" x="-4.45" y="-4.46" fill="none" rx="0" ry="0" transform="translate(221.97 91.27)"/><path fill="#edecec" d="M232.17 95.22q-1.26 0-2.24-.57-.97-.56-1.53-1.57-.55-1.01-.55-2.31 0-1.31.58-2.32.57-1 1.58-1.57 1.01-.57 2.29-.57 1.3 0 2.3.57 1 .57 1.56 1.57.57 1.01.59 2.32l-.72.39q0 1.18-.5 2.1-.49.92-1.37 1.44-.87.52-1.99.52m.16 3.38q-1.26 0-2.22-.47-.96-.48-1.59-1.29-.17-.19-.15-.42.03-.22.23-.37.21-.14.47-.09.25.05.4.24.46.57 1.19.93.73.35 1.69.35.89 0 1.61-.43.72-.44 1.15-1.22.42-.78.42-1.84v-2.43l.47-.93.75.14v3.27q0 1.29-.58 2.33-.57 1.03-1.57 1.63-.99.6-2.27.6m-.03-4.5q.94 0 1.67-.42.73-.43 1.15-1.18.41-.75.41-1.73 0-.97-.41-1.73-.42-.76-1.15-1.19-.73-.42-1.67-.42t-1.68.42q-.74.43-1.15 1.19-.42.76-.42 1.73 0 .98.42 1.73.41.75 1.15 1.18.74.42 1.68.42"/><rect width="8.9" height="12.29" x="-4.45" y="-6.14" fill="none" rx="0" ry="0" transform="translate(232.8 92.95)"/><path fill="#edecec" d="M243.12 95.22q-1.3 0-2.3-.57-1-.56-1.57-1.57-.57-1.01-.57-2.31 0-1.31.54-2.31t1.48-1.57q.94-.58 2.18-.58 1.21 0 2.12.55.9.55 1.4 1.53.49.98.49 2.22 0 .26-.16.41-.16.15-.41.15h-6.8v-1.02h6.92l-.68.5q.01-.93-.34-1.67-.35-.73-1-1.15-.65-.42-1.54-.42-.92 0-1.6.44-.69.43-1.07 1.19-.37.76-.37 1.73 0 .98.42 1.73t1.16 1.19q.74.43 1.7.43.57 0 1.16-.2.58-.2.93-.51.18-.14.4-.15.23-.01.39.12.2.19.21.42.01.22-.18.38-.53.45-1.35.75-.81.29-1.56.29"/><rect width="8.21" height="8.91" x="-4.11" y="-4.46" fill="none" rx="0" ry="0" transform="translate(243.28 91.27)"/><path fill="#edecec" d="M252.4 95.14q-.85 0-1.52-.4-.66-.4-1.04-1.09-.39-.7-.39-1.6v-7.82q0-.27.17-.45.17-.17.44-.17t.45.17q.17.18.17.45v7.82q0 .82.48 1.34.48.52 1.24.52h.43q.25 0 .41.18.16.17.16.44 0 .28-.19.44-.19.17-.48.17Zm-3.99-7.36q-.24 0-.4-.15-.16-.15-.16-.38 0-.24.16-.39.16-.15.4-.15h4.08q.24 0 .4.15.16.15.16.39 0 .23-.16.38t-.4.15Z"/><rect width="5.55" height="11.53" x="-2.77" y="-5.76" fill="none" rx="0" ry="0" transform="translate(251.13 89.88)"/><path fill="#edecec" d="M256.03 91.57q-.29 0-.46-.17-.17-.18-.17-.45v-7.68q0-.29.17-.46.17-.16.46-.16.27 0 .44.16.17.17.17.46v7.68q0 .27-.17.45-.17.17-.44.17m6.88 3.57q-.27 0-.45-.17-.18-.18-.18-.44v-4.16q0-.99-.37-1.63-.38-.64-1.03-.96-.64-.32-1.46-.32-.78 0-1.42.31-.63.3-1 .83-.36.53-.36 1.2h-.88q.03-1.01.54-1.8t1.36-1.25q.85-.46 1.89-.46 1.13 0 2.03.48.9.47 1.42 1.38.52.91.52 2.22v4.16q0 .26-.18.44-.18.17-.43.17m-6.88 0q-.29 0-.46-.17-.17-.16-.17-.44v-7.52q0-.28.17-.45.17-.17.46-.17.27 0 .44.17.17.17.17.45v7.52q0 .28-.17.44-.17.17-.44.17"/><rect width="8.12" height="12.49" x="-4.06" y="-6.25" fill="none" rx="0" ry="0" transform="translate(259.96 89.4)"/><path fill="#edecec" d="M270.2 95.22q-1.29 0-2.29-.57-1-.56-1.57-1.57-.57-1.01-.57-2.31 0-1.31.54-2.31.53-1 1.48-1.57.94-.58 2.17-.58 1.22 0 2.12.55.91.55 1.4 1.53.5.98.5 2.22 0 .26-.16.41-.16.15-.42.15h-6.8v-1.02h6.93l-.69.5q.02-.93-.33-1.67-.35-.73-1-1.15-.65-.42-1.55-.42-.91 0-1.6.44-.68.43-1.06 1.19t-.38 1.73q0 .98.43 1.73.42.75 1.16 1.19.73.43 1.69.43.58 0 1.16-.2.59-.2.94-.51.18-.14.4-.15.22-.01.38.12.21.19.22.42.01.22-.18.38-.53.45-1.35.75-.81.29-1.57.29"/><rect width="8.21" height="8.91" x="-4.11" y="-4.46" fill="none" rx="0" ry="0" transform="translate(270.38 91.27)"/><path fill="#edecec" d="M276.57 89.75q.05-.99.52-1.78.47-.78 1.23-1.23.76-.45 1.69-.45.74 0 1.14.21.4.21.3.61-.06.24-.21.32-.16.08-.37.06-.22-.01-.49-.03-.9-.08-1.59.19-.7.26-1.11.8-.4.55-.4 1.3Zm.1 5.39q-.29 0-.45-.16-.16-.16-.16-.45V87q0-.29.16-.45.16-.16.45-.16.29 0 .45.16.16.16.16.45v7.53q0 .29-.16.45-.16.16-.45.16"/><rect width="5.45" height="8.85" x="-2.72" y="-4.42" fill="none" rx="0" ry="0" transform="translate(279.28 91.22)"/><path fill="#edecec" d="M280.68 97.73q-.16 0-.24-.08-.09-.09-.09-.24 0-.24.14-.44.15-.2.3-.42.15-.22.15-.54 0-.29-.11-.48-.11-.2-.27-.35-.15-.15-.26-.33-.11-.19-.11-.46 0-.4.26-.64.27-.24.67-.24.48 0 .78.38.3.37.3 1.04 0 .45-.12.95-.13.49-.36.92-.22.42-.49.68-.27.25-.55.25"/><rect width="2.01" height="4.22" x="-1" y="-2.11" fill="none" rx="0" ry="0" transform="translate(281.7 96.12)"/><path fill="#edecec" d="M293.13 95.3q-1.02 0-1.89-.29-.88-.3-1.52-.84-.64-.55-.97-1.27-.13-.25-.01-.47.12-.22.41-.3.22-.06.44.05.21.11.33.34.24.46.7.83.46.37 1.1.57.64.2 1.41.2.85 0 1.51-.28.65-.28 1.03-.82.37-.53.37-1.3 0-.98-.72-1.68-.72-.71-2.25-.9-1.87-.22-2.93-1.16-1.06-.93-1.06-2.29 0-.98.52-1.7t1.44-1.11q.91-.39 2.09-.39.88 0 1.6.28.72.28 1.26.73.53.46.87 1 .16.26.1.5-.05.24-.28.37-.24.11-.48.03-.25-.08-.38-.31-.24-.36-.6-.69-.36-.33-.87-.52t-1.23-.21q-1.27 0-2.04.54-.76.53-.76 1.56 0 .54.28 1 .29.45.96.78.66.33 1.78.49 2 .29 2.97 1.22.97.94.97 2.44 0 .87-.32 1.54-.31.67-.88 1.13-.56.45-1.32.69-.76.24-1.63.24"/><rect width="8.63" height="12.81" x="-4.31" y="-6.41" fill="none" rx="0" ry="0" transform="translate(293.47 89.4)"/><path fill="#edecec" d="M303.15 95.14q-.85 0-1.51-.4-.67-.4-1.05-1.09-.39-.7-.39-1.6v-7.82q0-.27.17-.45.17-.17.44-.17t.45.17q.18.18.18.45v7.82q0 .82.48 1.34.48.52 1.23.52h.43q.26 0 .42.18.16.17.16.44 0 .28-.2.44-.19.17-.48.17Zm-3.99-7.36q-.24 0-.4-.15-.16-.15-.16-.38 0-.24.16-.39.16-.15.4-.15h4.08q.24 0 .4.15.16.15.16.39 0 .23-.16.38t-.4.15Z"/><rect width="5.56" height="11.53" x="-2.78" y="-5.76" fill="none" rx="0" ry="0" transform="translate(301.88 89.88)"/><path fill="#edecec" d="M310.01 95.22q-1.23 0-2.21-.58-.97-.59-1.54-1.59-.57-1.01-.57-2.28 0-1.28.59-2.28.58-1.01 1.59-1.6 1.01-.58 2.27-.58t2.26.58q1 .59 1.59 1.6.58 1 .6 2.28l-.5.39q0 1.15-.53 2.07-.54.92-1.46 1.46-.92.53-2.09.53m.13-1.12q.93 0 1.66-.43.72-.43 1.15-1.19.42-.76.42-1.71 0-.96-.42-1.71-.43-.75-1.15-1.19-.73-.44-1.66-.44-.91 0-1.65.44-.73.44-1.17 1.19-.43.75-.43 1.71 0 .95.43 1.71.44.76 1.17 1.19.74.43 1.65.43m3.82 1.04q-.27 0-.44-.17-.18-.16-.18-.44V91.8l.3-1.27.95.24v3.76q0 .28-.18.44-.17.17-.45.17"/><rect width="8.9" height="8.91" x="-4.45" y="-4.46" fill="none" rx="0" ry="0" transform="translate(310.64 91.27)"/><path fill="#edecec" d="M318.49 98.95q-.13 0-.29-.06-.54-.24-.3-.77l5.17-11.39q.24-.52.77-.29.54.22.3.75l-5.18 11.39q-.16.37-.47.37m1.78-4.08q-.24.11-.45.04-.21-.07-.34-.31l-3.56-7.39q-.12-.24-.04-.45.08-.21.32-.32.24-.11.45-.04.21.07.32.31l3.51 7.39q.12.24.08.45-.05.21-.29.32"/><rect width="8.47" height="12.66" x="-4.24" y="-6.33" fill="none" rx="0" ry="0" transform="translate(320.56 93.12)"/><path fill="#edecec" d="M331.23 95.14q-.27 0-.45-.17-.18-.18-.18-.45V83.27q0-.27.18-.45.18-.17.45-.17t.45.17q.17.18.17.45v11.25q0 .27-.17.45-.18.17-.45.17"/><rect width="1.25" height="12.49" x="-.63" y="-6.25" fill="none" rx="0" ry="0" transform="translate(331.73 89.4)"/><path fill="#edecec" d="M342.4 95.14q-.28 0-.45-.17-.18-.18-.18-.44v-4.16q0-.99-.37-1.63-.38-.64-1.03-.96-.65-.32-1.46-.32-.79 0-1.42.31-.63.3-1 .83t-.37 1.2h-.88q.04-1.01.55-1.8t1.36-1.25q.85-.46 1.89-.46 1.13 0 2.03.48.89.47 1.41 1.38.52.91.52 2.22v4.16q0 .26-.17.44-.18.17-.43.17m-6.88 0q-.29 0-.46-.17-.17-.16-.17-.44v-7.52q0-.28.17-.45.17-.17.46-.17.27 0 .44.17.16.17.16.45v7.52q0 .28-.16.44-.17.17-.44.17"/><rect width="8.11" height="8.85" x="-4.05" y="-4.42" fill="none" rx="0" ry="0" transform="translate(339.44 91.22)"/><path fill="#edecec" d="M354.41 95.3q-1.02 0-1.89-.29-.88-.3-1.52-.84-.64-.55-.97-1.27-.13-.25-.01-.47.12-.22.41-.3.22-.06.44.05.21.11.33.34.24.46.7.83.46.37 1.1.57.64.2 1.41.2.85 0 1.51-.28.65-.28 1.03-.82.37-.53.37-1.3 0-.98-.72-1.68-.72-.71-2.25-.9-1.87-.22-2.93-1.16-1.06-.93-1.06-2.29 0-.98.52-1.7t1.44-1.11q.91-.39 2.09-.39.88 0 1.6.28.72.28 1.26.73.53.46.87 1 .16.26.1.5-.05.24-.28.37-.24.11-.48.03-.25-.08-.38-.31-.24-.36-.6-.69-.36-.33-.87-.52t-1.23-.21q-1.27 0-2.04.54-.76.53-.76 1.56 0 .54.28 1 .29.45.96.78.66.33 1.78.49 2 .29 2.97 1.22.97.94.97 2.44 0 .87-.32 1.54-.31.67-.88 1.13-.56.45-1.32.69-.76.24-1.63.24"/><rect width="8.63" height="12.81" x="-4.31" y="-6.41" fill="none" rx="0" ry="0" transform="translate(354.75 89.4)"/><path fill="#edecec" d="M362.51 98.95q-.13 0-.29-.06-.54-.24-.3-.77l5.16-11.39q.24-.52.77-.29.55.22.31.75l-5.19 11.39q-.16.37-.46.37m1.77-4.08q-.24.11-.44.04-.21-.07-.34-.31l-3.57-7.39q-.11-.24-.03-.45.08-.21.32-.32.24-.11.45-.04.21.07.32.31l3.5 7.39q.13.24.08.45-.05.21-.29.32"/><rect width="8.47" height="12.66" x="-4.24" y="-6.33" fill="none" rx="0" ry="0" transform="translate(364.58 93.12)"/><path fill="#edecec" d="M377.28 95.14q-.28 0-.45-.17-.18-.18-.18-.44v-4.16q0-.99-.37-1.63-.38-.64-1.03-.96-.65-.32-1.46-.32-.79 0-1.42.31-.63.3-1 .83t-.37 1.2h-.88q.04-1.01.55-1.8t1.36-1.25q.85-.46 1.89-.46 1.13 0 2.03.48.89.47 1.41 1.38.52.91.52 2.22v4.16q0 .26-.17.44-.18.17-.43.17m-6.88 0q-.29 0-.46-.17-.17-.16-.17-.44v-7.52q0-.28.17-.45.17-.17.46-.17.27 0 .44.17.16.17.16.45v7.52q0 .28-.16.44-.17.17-.44.17"/><rect width="8.11" height="8.85" x="-4.05" y="-4.42" fill="none" rx="0" ry="0" transform="translate(374.32 91.22)"/><path fill="#edecec" d="M384.51 95.22q-1.27 0-2.25-.58-.98-.59-1.55-1.59-.57-1.01-.57-2.28 0-1.28.54-2.28.55-1.01 1.49-1.6.95-.58 2.18-.58.97 0 1.8.38.82.39 1.45 1.16.17.19.12.4-.04.22-.27.38-.17.13-.39.09-.22-.04-.38-.23-.92-1.06-2.33-1.06-.9 0-1.58.43t-1.05 1.19q-.38.75-.38 1.72 0 .96.4 1.72.4.75 1.12 1.18.72.43 1.65.43.62 0 1.14-.17.52-.16.92-.52.19-.16.4-.17.21-.02.39.13.19.17.21.4.03.22-.15.38-1.17 1.07-2.91 1.07"/><rect width="7.61" height="8.91" x="-3.8" y="-4.46" fill="none" rx="0" ry="0" transform="translate(384.44 91.27)"/><path fill="#edecec" d="M390.41 95.4q-.38 0-.65-.27-.28-.28-.28-.66 0-.4.28-.67t.65-.27q.39 0 .66.28t.27.66q0 .37-.26.65-.27.28-.67.28"/><rect width="1.86" height="1.87" x="-.93" y="-.94" fill="none" rx="0" ry="0" transform="translate(390.91 94.97)"/></svg></svg>